<?xml version="1.0" encoding="UTF-8" standalone="no"?>
<svg
   xmlns:dc="http://purl.org/dc/elements/1.1/"
   xmlns:cc="http://creativecommons.org/ns#"
   xmlns:rdf="http://www.w3.org/1999/02/22-rdf-syntax-ns#"
   xmlns:svg="http://www.w3.org/2000/svg"
   xmlns="http://www.w3.org/2000/svg"
   viewBox="0 0 816 1056"
   height="1056"
   width="816"
   xml:space="preserve"
   id="svg2"
   version="1.1"><metadata
     id="metadata8"><rdf:RDF><cc:Work
         rdf:about=""><dc:format>image/svg+xml</dc:format><dc:type
           rdf:resource="http://purl.org/dc/dcmitype/StillImage" /></cc:Work></rdf:RDF></metadata><defs
     id="defs6"><linearGradient
       id="linearGradient28"
       spreadMethod="pad"
       gradientTransform="matrix(229.64993,0,0,-229.64993,123.75451,451.83728)"
       gradientUnits="userSpaceOnUse"
       y2="0"
       x2="1"
       y1="0"
       x1="0"><stop
         id="stop24"
         offset="0"
         style="stop-opacity:1;stop-color:#6a1caf" /><stop
         id="stop26"
         offset="1"
         style="stop-opacity:1;stop-color:#6569f5" /></linearGradient><linearGradient
       id="linearGradient48"
       spreadMethod="pad"
       gradientTransform="matrix(110.58255,0,0,-110.58255,258.29568,448.80908)"
       gradientUnits="userSpaceOnUse"
       y2="0"
       x2="1"
       y1="0"
       x1="0"><stop
         id="stop44"
         offset="0"
         style="stop-opacity:1;stop-color:#6a1caf" /><stop
         id="stop46"
         offset="1"
         style="stop-opacity:1;stop-color:#6569f5" /></linearGradient><clipPath
       id="clipPath58"
       clipPathUnits="userSpaceOnUse"><path
         id="path56"
         d="M 0,792 H 612 V 0 H 0 Z" /></clipPath><linearGradient
       id="linearGradient88"
       spreadMethod="pad"
       gradientTransform="matrix(170.96223,0,0,-170.96223,343.20978,310.49442)"
       gradientUnits="userSpaceOnUse"
       y2="0"
       x2="1"
       y1="0"
       x1="0"><stop
         id="stop84"
         offset="0"
         style="stop-opacity:1;stop-color:#6a1caf" /><stop
         id="stop86"
         offset="1"
         style="stop-opacity:1;stop-color:#6569f5" /></linearGradient><clipPath
       id="clipPath98"
       clipPathUnits="userSpaceOnUse"><path
         id="path96"
         d="M 0,792 H 612 V 0 H 0 Z" /></clipPath><linearGradient
       id="linearGradient128"
       spreadMethod="pad"
       gradientTransform="matrix(285.51437,0,0,-285.51437,193.45193,432.16357)"
       gradientUnits="userSpaceOnUse"
       y2="0"
       x2="1"
       y1="0"
       x1="0"><stop
         id="stop124"
         offset="0"
         style="stop-opacity:1;stop-color:#6a1caf" /><stop
         id="stop126"
         offset="1"
         style="stop-opacity:1;stop-color:#6569f5" /></linearGradient><clipPath
       id="clipPath138"
       clipPathUnits="userSpaceOnUse"><path
         id="path136"
         d="M 0,792 H 612 V 0 H 0 Z" /></clipPath></defs><g
     transform="matrix(1.3333333,0,0,-1.3333333,0,1056)"
     id="g10"><g
       id="g12"><g
         id="g14"><g
           id="g20"><g
             id="g22"><path
               id="path30"
               style="fill:url(#linearGradient28);stroke:none"
               d="m 123.755,448.814 c 0,-59.221 39.716,-109.482 94.311,-126.349 v 0 l 38.748,38.134 c -48.769,0.776 -88.204,40.037 -88.204,88.215 v 0 c 0,48.662 40.226,88.251 89.671,88.251 v 0 c 23.951,0 46.469,-9.179 63.41,-25.849 v 0 l 31.714,31.219 c -25.412,25.002 -59.194,38.774 -95.124,38.774 v 0 c -74.178,0 -134.526,-59.394 -134.526,-132.395" /></g></g></g></g><g
       id="g32"><g
         id="g34"><g
           id="g40"><g
             id="g42"><path
               id="path50"
               style="fill:url(#linearGradient48);stroke:none"
               d="m 258.296,470.882 v -44.145 h 65.727 l 44.856,44.145 z" /></g></g></g></g><g
       id="g52"><g
         clip-path="url(#clipPath58)"
         id="g54"><g
           transform="translate(506.6109,401.4267)"
           id="g60"><path
             id="path62"
             style="fill:#f9b76e;fill-opacity:1;fill-rule:nonzero;stroke:none"
             d="m 0,0 c 6.954,-8.213 13.551,-16.65 17.299,-26.913 -6.539,7.747 -13.525,15.029 -21.908,20.912 -30.531,21.425 -64.922,27.28 -102.027,14.597 -46.366,-15.848 -73.868,-48.204 -80.687,-94.645 -7.793,-53.075 27.545,-99.574 74.047,-111.145 1.471,-0.366 4.442,0.08 3.957,-2.118 -0.358,-1.622 -2.923,-0.471 -4.445,-0.439 -2.012,0.042 -4.138,-0.155 -5.991,0.806 0.063,0.574 -0.28,0.521 -0.677,0.383 0,0 0.092,-0.032 0.092,-0.032 -0.384,0.345 -0.701,0.877 -1.16,1.006 -8.758,2.452 -16.6,6.785 -23.969,11.484 -7.259,4.628 -13.699,10.463 -20.049,16.325 -4.875,4.5 -9.015,9.596 -12.509,14.883 -4.025,6.092 -7.744,12.52 -10.835,19.296 -9.822,21.528 -11.395,44.248 -7.415,67.702 2.768,16.316 9.419,31.604 18.903,45.732 9.297,13.849 20.788,25.801 34.783,35.485 6.759,4.677 13.853,8.743 21.329,12.117 8.211,3.706 16.65,6.697 25.457,8.638 5.229,1.152 10.674,1.302 15.666,3.658 C -63.191,37.68 -47.93,32.567 -33.343,25.465 -20.392,19.159 -9.582,10.304 0,0" /></g><g
           transform="translate(420.1063,413.7957)"
           id="g64"><path
             id="path66"
             style="fill:#6a1caf;fill-opacity:1;fill-rule:nonzero;stroke:none"
             d="m 0,0 c 18.847,1.651 36.681,-0.848 54.023,-7.425 15.058,-5.712 27.573,-14.282 38.582,-25.24 32.661,-32.509 36.888,-87.395 9.745,-127.355 -34.983,-51.502 -105.928,-66.66 -155.912,-33.317 -0.794,0.53 -1.76,0.874 -2.021,1.917 1.525,-0.02 2.584,-0.977 3.768,-1.641 11.843,-6.635 24.633,-10.983 38.466,-12.566 8.734,-0.999 17.676,-1.705 26.427,0.34 10.144,2.37 19.531,7.198 28.327,12.734 12.714,8.002 23.341,18.255 32.191,30.209 7.581,10.239 12.861,21.446 16.377,33.297 4.643,15.647 5.15,31.343 2.455,47.042 C 88.346,-58.223 76.44,-38.774 57.872,-23.821 42.697,-11.6 24.846,-3.54 4.311,-1.473 2.864,-1.327 0.789,-1.993 0,0" /></g><g
           transform="translate(426.4715,439.1587)"
           id="g68"><path
             id="path70"
             style="fill:#0f0619;fill-opacity:1;fill-rule:nonzero;stroke:none"
             d="m 0,0 c -4.992,-2.356 -10.437,-2.506 -15.666,-3.658 -8.807,-1.941 -17.246,-4.932 -25.457,-8.638 -7.476,-3.374 -14.569,-7.44 -21.329,-12.117 -13.994,-9.684 -25.486,-21.636 -34.783,-35.485 -9.484,-14.128 -16.135,-29.416 -18.903,-45.732 -3.98,-23.454 -2.406,-46.174 7.415,-67.702 3.091,-6.776 6.81,-13.204 10.836,-19.296 3.494,-5.287 7.633,-10.383 12.508,-14.883 6.351,-5.862 12.791,-11.697 20.05,-16.325 7.369,-4.699 15.21,-9.032 23.968,-11.484 0.46,-0.129 0.777,-0.661 1.16,-1.006 -5.479,-0.401 -10.45,1.407 -15.487,2.73 -11.263,2.958 -21.685,7.684 -31.67,13.264 -2.841,1.588 -4.608,4.556 -7.972,5.441 -0.741,1.246 -1.792,2.184 -2.91,3.136 -10.326,8.79 -19.386,18.494 -26.234,30.28 -9.911,17.057 -15.357,35.414 -15.305,55.232 0.102,38.969 16.22,71.963 47.774,97.906 19.034,15.651 41.369,24.998 65.852,28.171 C -17.434,0.965 -8.612,2.005 0,0" /></g></g></g><g
       id="g72"><g
         id="g74"><g
           id="g80"><g
             id="g82"><path
               id="path90"
               style="fill:url(#linearGradient88);stroke:none"
               d="m 409.597,411.176 c 16.235,-0.119 31.318,-3.453 45.275,-10.553 v 0 c 13.865,-7.054 25.002,-16.951 33.51,-29.517 v 0 c 8.61,-12.714 13.801,-26.878 14.435,-42.37 v 0 c 1.66,-40.521 -15.915,-72.514 -53.535,-92.861 v 0 c -36.943,-19.981 -72.697,-16.377 -106.072,4.946 v 0 c 6.289,-6.947 12.817,-13.705 21.313,-18.445 v 0 c 1.525,-0.02 2.584,-0.978 3.769,-1.641 v 0 c 11.842,-6.635 24.633,-10.984 38.466,-12.566 v 0 c 8.733,-1 17.676,-1.705 26.426,0.339 v 0 c 10.144,2.371 19.531,7.199 28.328,12.735 v 0 c 12.713,8.002 23.341,18.255 32.19,30.208 v 0 c 7.581,10.239 12.861,21.447 16.377,33.298 v 0 c 4.644,15.647 5.15,31.343 2.456,47.042 v 0 c -4.083,23.781 -15.989,43.23 -34.557,58.184 v 0 c -15.175,12.221 -33.025,20.28 -53.56,22.347 v 0 c -0.339,0.034 -0.712,0.024 -1.095,0.014 v 0 c -1.253,-0.034 -2.613,-0.068 -3.216,1.46 v 0 c -3.583,-0.121 -7.085,-0.64 -10.51,-2.62" /></g></g></g></g><g
       id="g92"><g
         clip-path="url(#clipPath98)"
         id="g94"><g
           transform="translate(426.4715,439.1587)"
           id="g100"><path
             id="path102"
             style="fill:#f6931e;fill-opacity:1;fill-rule:nonzero;stroke:none"
             d="m 0,0 c -8.612,2.005 -17.434,0.965 -26.153,-0.166 -24.483,-3.173 -46.818,-12.52 -65.852,-28.171 -31.554,-25.943 -47.672,-58.937 -47.774,-97.906 -0.052,-19.818 5.394,-38.175 15.305,-55.232 6.848,-11.786 15.908,-21.49 26.234,-30.28 1.118,-0.952 2.169,-1.89 2.91,-3.136 -8.488,4.857 -15.406,11.478 -21.621,18.658 -24.615,28.441 -34.381,61.694 -27.298,99.55 15.276,81.638 107.176,128.716 183.646,92.289 14.247,-6.786 26.366,-16.158 36.791,-27.538 1.572,-1.716 2.648,-3.859 3.953,-5.802 -9.584,10.306 -20.394,19.161 -33.345,25.467 C 32.21,-5.165 16.949,-0.052 0,0" /></g><g
           transform="translate(386.1792,202.8644)"
           id="g104"><path
             id="path106"
             style="fill:#0195db;fill-opacity:1;fill-rule:nonzero;stroke:none"
             d="M 0,0 C 0.397,0.138 0.74,0.191 0.677,-0.383 0.415,-0.312 0.189,-0.184 0,0" /></g><g
           transform="translate(276.6313,363.393)"
           id="g108"><path
             id="path110"
             style="fill:#ffffff;fill-opacity:1;fill-rule:nonzero;stroke:none"
             d="M 0,0 77.553,62.87 3.797,-15.297 Z" /></g></g></g><g
       id="g112"><g
         id="g114"><g
           id="g120"><g
             id="g122"><path
               id="path130"
               style="fill:url(#linearGradient128);stroke:none"
               d="m 457.303,560.714 c 6.574,9.763 10.144,15.513 10.205,15.611 v 0 l -1.659,1.115 C 347.501,415.05 228.196,346.06 194.45,328.784 v 0 c -0.519,-0.266 -0.862,-0.739 -0.968,-1.331 v 0 c -0.581,-3.261 7.457,-12.29 9.935,-14.979 v 0 l 0.524,-0.569 0.682,0.363 c 31.335,16.693 74.137,48.8 134.315,100.787 v 0 C 290.42,348.196 217.409,294.72 216.652,294.169 v 0 l -0.976,-0.71 16.884,-15.893 0.681,0.585 c 126.86,108.8 244.552,305.521 245.726,307.496 v 0 l -1.658,1.113 c -6.464,-8.566 -13.15,-17.27 -20.006,-26.046" /></g></g></g></g><g
       id="g132"><g
         clip-path="url(#clipPath138)"
         id="g134"><g
           transform="translate(476.5103,587.3628)"
           id="g140"><path
             id="path142"
             style="fill:#ffffff;fill-opacity:1;fill-rule:nonzero;stroke:none"
             d="m 0,0 c -2.819,-3.735 -5.678,-7.496 -8.577,-11.278 l -2.893,1.945 c -50.406,-69.165 -106.325,-128.996 -166.203,-177.831 -48.289,-39.383 -86.415,-61.091 -104.844,-70.526 -0.803,-0.411 -1.334,-1.137 -1.496,-2.044 -0.59,-3.309 5.213,-10.436 10.185,-15.833 l 1.047,-1.136 1.364,0.726 c 30.11,16.04 70.752,46.254 127.142,94.582 -48.224,-61.229 -115.445,-110.461 -116.172,-110.99 l -1.952,-1.42 1.757,-1.654 15.352,-14.45 1.308,-1.231 1.365,1.17 c 66.375,56.926 129.711,137.574 171.155,195.206 44.885,62.416 74.484,112.043 74.778,112.537 z m 1.596,-1.205 c 0,0 -117.313,-197.296 -245.515,-307.247 l -15.352,14.449 c 0,0 78.722,57.272 127.686,126.209 -49.272,-42.85 -101.991,-85.758 -140.772,-106.417 0,0 -12.193,13.233 -9.248,14.741 36.042,18.452 153.897,87.245 271.752,248.959 0,0 -10.482,-16.939 -29.19,-42.73 13.454,16.681 27.045,34.02 40.639,52.036" /></g><g
           transform="translate(140.8325,354.1211)"
           id="g144"><path
             id="path146"
             style="fill:#000000;fill-opacity:1;fill-rule:nonzero;stroke:none"
             d="m 0,0 c 9.349,1.292 18.319,-0.404 27.101,-3.222 12.523,-4.018 23.878,-10.213 34.476,-17.839 13.959,-10.044 25.935,-21.967 35.4,-36.278 4.83,-7.303 8.834,-15.064 11.083,-23.56 1.732,-6.54 2.618,-13.21 0.768,-20.023 -2.16,-7.951 -7.367,-12.902 -15.157,-15.219 -9.094,-2.706 -18.15,-1.775 -27.117,0.416 -11.679,2.854 -22.377,7.867 -32.478,14.173 -12.799,7.99 -24.167,17.615 -33.904,29.072 -8.031,9.45 -14.792,19.686 -19.012,31.436 -1.634,4.55 -2.935,9.204 -3.22,14.06 -0.375,6.404 0.35,12.63 4.429,18.036 3.616,4.791 8.585,7.388 14.396,8.516 C -2.168,-0.225 -1.079,-0.141 0,0" /></g><g
           transform="translate(140.8325,354.1211)"
           id="g148"><path
             id="path150"
             style="fill:none;stroke:#ffffff;stroke-width:2;stroke-linecap:butt;stroke-linejoin:miter;stroke-miterlimit:10;stroke-dasharray:none;stroke-opacity:1"
             d="m 0,0 c 9.349,1.292 18.319,-0.404 27.101,-3.222 12.523,-4.018 23.878,-10.213 34.476,-17.839 13.959,-10.044 25.935,-21.967 35.4,-36.278 4.83,-7.303 8.834,-15.064 11.083,-23.56 1.732,-6.54 2.618,-13.21 0.768,-20.023 -2.16,-7.951 -7.367,-12.902 -15.157,-15.219 -9.094,-2.706 -18.15,-1.775 -27.117,0.416 -11.679,2.854 -22.377,7.867 -32.478,14.173 -12.799,7.99 -24.167,17.615 -33.904,29.072 -8.031,9.45 -14.792,19.686 -19.012,31.436 -1.634,4.55 -2.935,9.204 -3.22,14.06 -0.375,6.404 0.35,12.63 4.429,18.036 3.616,4.791 8.585,7.388 14.396,8.516 C -2.168,-0.225 -1.079,-0.141 0,0 Z" /></g><g
           transform="translate(236.8489,233.381)"
           id="g152"><path
             id="path154"
             style="fill:#000000;fill-opacity:1;fill-rule:nonzero;stroke:none"
             d="m 0,0 c -3.985,-4.004 -7.956,-8.022 -11.959,-12.008 -4.092,-4.072 -8.146,-8.184 -12.345,-12.146 -4.131,-3.899 -9.203,-6.06 -14.709,-7.176 -14.573,-2.953 -28.181,0.357 -41.375,5.888 -13.31,5.58 -24.982,13.625 -35.536,23.297 -10.889,9.978 -19.768,21.432 -25.985,34.841 -3.305,7.127 -5.489,14.6 -5.885,22.487 -0.419,8.325 1.544,16.027 6.819,22.885 5.539,7.199 10.806,14.602 16.191,21.916 0.602,0.817 1.202,1.635 1.854,2.523 0.029,-3.589 -0.188,-6.969 0.131,-10.29 0.838,-8.708 3.82,-16.77 7.792,-24.482 6.594,-12.801 15.546,-23.808 25.947,-33.731 11.093,-10.583 23.501,-19.35 37.356,-26.064 10.979,-5.32 22.495,-9.087 34.875,-9.763 C -11.181,-2.131 -5.558,-1.592 0,0" /></g><g
           transform="translate(236.8489,233.381)"
           id="g156"><path
             id="path158"
             style="fill:none;stroke:#ffffff;stroke-width:1;stroke-linecap:round;stroke-linejoin:round;stroke-miterlimit:10;stroke-dasharray:none;stroke-opacity:1"
             d="m 0,0 c -3.985,-4.004 -7.956,-8.022 -11.959,-12.008 -4.092,-4.072 -8.146,-8.184 -12.345,-12.146 -4.131,-3.899 -9.203,-6.06 -14.709,-7.176 -14.573,-2.953 -28.181,0.357 -41.375,5.888 -13.31,5.58 -24.982,13.625 -35.536,23.297 -10.889,9.978 -19.768,21.432 -25.985,34.841 -3.305,7.127 -5.489,14.6 -5.885,22.487 -0.419,8.325 1.544,16.027 6.819,22.885 5.539,7.199 10.806,14.602 16.191,21.916 0.602,0.817 1.202,1.635 1.854,2.523 0.029,-3.589 -0.188,-6.969 0.131,-10.29 0.838,-8.708 3.82,-16.77 7.792,-24.482 6.594,-12.801 15.546,-23.808 25.947,-33.731 11.093,-10.583 23.501,-19.35 37.356,-26.064 10.979,-5.32 22.495,-9.087 34.875,-9.763 C -11.181,-2.131 -5.558,-1.592 0,0 Z" /></g></g></g></g></svg>